
        <svg xmlns="http://www.w3.org/2000/svg" xmlns:xlink="http://www.w3.org/1999/xlink" version="1.1" width="3187.5"
        height="1702.7551316176507" viewBox="0 0 3187.5 1702.7551316176507">

			<g transform="scale(9.375) translate(10, 10)">
				<defs id="SvgjsDefs2087"></defs><g id="SvgjsG2088" featureKey="symbolFeature-0" transform="matrix(1.7865793368425558,0,0,1.7865793368425558,-39.35354607483318,-8.633806473623991)" fill="#76b39d"><title xmlns="http://www.w3.org/2000/svg">09</title><g xmlns="http://www.w3.org/2000/svg" data-name="Group"><path data-name="Compound Path" d="M78,32.8a28.1,28.1,0,0,0-8.8-20.4,27.8,27.8,0,0,0-21-7.5A28,28,0,0,0,30.7,53.1a16.9,16.9,0,0,1,5,14.6L35.5,70A1.5,1.5,0,0,0,37,71.8H62.7A1.7,1.7,0,0,0,64.4,70l-.2-3.8a16.6,16.6,0,0,1,5-13A27.8,27.8,0,0,0,78,32.8Zm-33.1,6H38.3A2.3,2.3,0,0,1,36,36.5V34.1a2.3,2.3,0,0,1,2.3-2.3,6.6,6.6,0,0,1,6.6,6.6Zm8.2,31H46.9v-29h6.2Zm14.7-18a18.6,18.6,0,0,0-5.7,14.5l.2,3.5H55.1v-29h6.6A4.3,4.3,0,0,0,66,36.5V34.1a4.3,4.3,0,0,0-4.3-4.3,8.6,8.6,0,0,0-8.6,8.6v.4H46.9v-.4a8.6,8.6,0,0,0-8.6-8.6A4.3,4.3,0,0,0,34,34.1v2.3a4.3,4.3,0,0,0,4.3,4.3h6.6v29H37.5l.2-1.8a18.9,18.9,0,0,0-5.6-16.3A26,26,0,0,1,67.8,13.8a26,26,0,0,1,0,37.9ZM55.1,38.8v-.4a6.6,6.6,0,0,1,6.6-6.6A2.3,2.3,0,0,1,64,34.1v2.3a2.3,2.3,0,0,1-2.3,2.3Z"></path><path data-name="Path" d="M60.7,82.8a1,1,0,0,0-1-1H40a1,1,0,1,0,0,2H59.7A1,1,0,0,0,60.7,82.8Z"></path><path data-name="Path" d="M43,93.3a1,1,0,1,0,0,2H56.7a1,1,0,0,0,0-2Z"></path></g></g><g id="SvgjsG2089" featureKey="nameFeature-0" transform="matrix(1.5903307617898137,0,0,1.5903307617898137,115.99236764811602,41.16031313519516)" fill="#76b39d"><path d="M23.84 16.24 l0 3.24 c0 1.68 -1.44 4.76 -3.72 5.36 c2.12 0.32 3.72 3.48 3.72 5.12 l0 3.76 c0 3.48 -2.8 6.28 -6.28 6.28 l-13.8 0 c-0.68 0 -1.24 -0.56 -1.24 -1.24 l0 -27.56 c0 -0.68 0.56 -1.24 1.24 -1.24 l13.8 0 c3.48 0 6.28 2.84 6.28 6.28 z M21.76 29.8 c0 -2.32 -1.88 -4.2 -4.2 -4.2 l-12.96 0 l0 12.2 c0 0.24 0.2 0.44 0.48 0.44 l12.48 0 c2.32 0 4.2 -1.88 4.2 -4.2 l0 -4.24 z M21.76 19.64 l0 -3.72 c0 -2.32 -1.88 -4.2 -4.2 -4.2 l-12.48 0 c-0.28 0 -0.48 0.2 -0.48 0.44 l0 11.68 l12.96 0 c2.32 0 4.2 -1.88 4.2 -4.2 z M38.08 19.96 c2.76 0 4.96 2.28 4.96 5.04 l0 14.56 c0 0.24 -0.2 0.44 -0.44 0.44 l-10.04 0 c-2.76 0 -4.96 -2.24 -4.96 -5 l0 -2.08 c0 -2.8 2.2 -5.04 4.96 -5.04 l8.24 0 c0.24 0 0.4 -0.16 0.44 -0.44 l0 -2.6 c0 -1.76 -1.4 -3.2 -3.16 -3.2 l-8.36 0 c-0.2 0 -0.4 -0.2 -0.4 -0.44 l0 -1.24 l8.76 0 z M32.56 38.24 l8.68 0 l0 -8.84 c-0.08 0.08 -0.2 0.16 -0.32 0.16 l-8.36 0 c-1.76 0 -3.16 1.44 -3.16 3.2 l0 2.32 c0 1.76 1.4 3.16 3.16 3.16 z M47.800000000000004 39.56 l0 -27.92 l1.36 0 c0.24 0 0.44 0.2 0.44 0.44 l0 27.88 l-1.36 0 c-0.24 0 -0.44 -0.16 -0.44 -0.4 z M64.32000000000001 19.96 c2.76 0 4.96 2.28 4.96 5.04 l0 14.56 c0 0.24 -0.2 0.44 -0.44 0.44 l-10.04 0 c-2.76 0 -4.96 -2.24 -4.96 -5 l0 -2.08 c0 -2.8 2.2 -5.04 4.96 -5.04 l8.24 0 c0.24 0 0.4 -0.16 0.44 -0.44 l0 -2.6 c0 -1.76 -1.4 -3.2 -3.16 -3.2 l-8.36 0 c-0.2 0 -0.4 -0.2 -0.4 -0.44 l0 -1.24 l8.76 0 z M58.800000000000004 38.24 l8.68 0 l0 -8.84 c-0.08 0.08 -0.2 0.16 -0.32 0.16 l-8.36 0 c-1.76 0 -3.16 1.44 -3.16 3.2 l0 2.32 c0 1.76 1.4 3.16 3.16 3.16 z M88.2 39.56 l0 -14.72 c0 -1.76 -1.44 -3.2 -3.16 -3.2 l-8.76 0 c-0.24 0 -0.44 0.2 -0.44 0.44 l0 17.48 c0 0.24 -0.2 0.44 -0.44 0.44 l-1.36 0 l0 -18.24 c0 -0.96 0.8 -1.8 1.76 -1.8 l9.24 0 c2.72 0 4.96 2.28 4.96 5.04 l0 15 l-1.4 0 c-0.2 0 -0.4 -0.2 -0.4 -0.44 z M94.6 35 l0 -9.96 c0 -2.76 2.2 -5 4.96 -5 l8.2 0 l0 1.2 c0 0.24 -0.16 0.44 -0.4 0.44 l-7.8 0 c-1.76 0 -3.16 1.44 -3.16 3.2 l0 10.28 c0 1.76 1.4 3.16 3.16 3.16 l7.8 0 c0.24 0 0.4 0.2 0.4 0.44 l0 1.24 l-8.2 0 c-2.76 0 -4.96 -2.24 -4.96 -5 z M117.24 40 c-2.76 0 -4.96 -1.8 -4.96 -4.84 l0 -10.36 c0 -3 2.12 -4.8 4.84 -4.8 l6.32 0 c2.72 0 4.84 1.8 4.84 4.8 l0 5.44 c0 0.28 -0.2 0.48 -0.44 0.48 l-12.84 0 c-0.36 0 -0.68 -0.2 -0.88 -0.48 l-0.04 0 l0 4.88 c0 1.76 1.4 3.16 3.16 3.16 l10.28 0 c0.24 0 0.44 0.2 0.44 0.44 l0 1.28 l-10.72 0 z M123.44 21.64 l-6.32 0 c-1.72 0 -3.04 1.44 -3.04 3.2 l0 3.76 c0 0.24 0.16 0.4 0.44 0.44 l11.96 0 l0 -4.2 c0 -1.76 -1.32 -3.2 -3.04 -3.2 z"></path></g>
			</g>
		</svg>
